# xmcd CD database file
#
# Track frame offsets:
#	151
#	13312
#	25958
#	38679
#	51473
#	65232
#	80490
#	93096
#	106423
#	119201
#	133661
#	145239
#	157244
#	169435
#	181061
#
# Disc length: 2621 seconds
#
# Revision: 0
# Processed by: cddbd v1.5.2PL0 Copyright (c) Steve Scherf et al.
# Submitted via: CDex 1.70beta2
#
DISCID=df0a3b0f
DTITLE=Ronnie Beard - Ronnie Beard
DYEAR=1996
DGENRE=Country
TTITLE0=Eatin' Right And Drinkin' Bad
TTITLE1=Million Dollar Cowboy
TTITLE2=Body Language
TTITLE3=Lonely And Blue
TTITLE4=I'm Gettin' Over It
TTITLE5=Cow Cow Girl
TTITLE6=Boomshake
TTITLE7=Opposites
TTITLE8=Sunglasses On My Heart
TTITLE9=Lyin' Love
TTITLE10=I Give You Flowers (dance mix)
TTITLE11=Eatin' Right And Drinkin' Bad (dance mix)
TTITLE12=Body Language (radio)
TTITLE13=I Give You Flowers (radio)
TTITLE14=Boomshake (dance mix)
EXTD=YEAR: 1996
EXTT0=
EXTT1=
EXTT2=
EXTT3=
EXTT4=
EXTT5=
EXTT6=
EXTT7=
EXTT8=
EXTT9=
EXTT10=
EXTT11=
EXTT12=
EXTT13=
EXTT14=
PLAYORDER=
